<svg xmlns="http://www.w3.org/2000/svg" viewBox="0 0 2238 974"><style>.st0{fill:#fff}</style><g id="test2_xA0_Image_1_"><path class="st0" d="M289 402.2c-7.1-15.8-14.3-30.5-20.4-45.7-15.8-38.8-25.8-78.8-22.5-121.2 3.6-46.3 21.8-85.7 55.1-118.2 28.6-27.9 62.4-46 101.2-54.5 29.3-6.4 58.9-7.3 88.8-4.1 25.9 2.8 51 8.6 74.5 19.9 55.3 26.5 91.2 69.4 107.2 128.8 7.6 28.3 8.5 57.1 7.8 86.1-.1 3.1-.6 6.2-1 10.2h105.2c11.7 0 20.2 5.6 23.2 14.6 5 14.8-4.6 30.6-23.2 30.5-34.8-.2-69.7.1-104.5-.2-5.6-.1-7.9 1.4-9.4 7-8 28.8-20.3 56-32.3 83.4-.7 1.5-1.3 3-2.3 5.5h148.2c8.1 0 15.5 2 20.5 9.2 5.3 7.6 5.5 15.6 1.8 23.6-3.9 8.4-11.3 12.1-20.3 12.1-22.2.1-44.3 0-66.5 0-33.3 0-66.7 0-100-.1-3 0-4.8.8-6.1 3.7-13.4 29.8-26.9 59.5-40.4 89.2-.3.7-.4 1.5-.8 2.8h212.3c14 0 21.3 6 24.1 19.6 1.9 9.4-4.9 21-14.2 23.6-4 1.1-8.2 1.8-12.3 1.8-74.7.1-149.3.1-224 0-3.9 0-5.7 1-7.2 4.8-11.4 29-22.7 58-29.2 88.6-5.4 25.7-3.4 50.4 12.2 72.4 18 25.3 43 34.2 73.3 29.8 25.1-3.7 45.9-16.7 65.7-31.4 6.3-4.6 12-9.9 17.9-15.1 7.4-6.6 15.6-10.1 25.6-7.8 14.9 3.5 23.4 19.9 17.3 34.1-1.9 4.5-4.7 9.1-8.4 12.2-23.7 20.4-48.6 39.4-78 51.2-19.9 8-40.6 12.2-62.1 11.3-56.5-2.4-100.7-37.8-117.4-84.8-7.3-20.5-8.2-41.7-5.7-63 4.5-38.8 16.2-75.9 30.8-111.8 17-41.7 35.6-82.8 53.8-124 16.9-38.3 34.8-76.3 51.3-114.8 10.3-24.1 17.2-49.5 21.2-75.5 3.1-20.1 3-40.4.3-60.7-3.4-26.1-11.3-50.4-26.2-72.2-23.6-34.8-56.2-56.2-97.6-64.2-17.4-3.4-35.1-3.9-52.6-2.8-32 2-61.4 11.6-86.8 32-26.6 21.4-42.8 49-49.6 82.2-6.1 29.7-3.7 59.2 2.7 88.5 9 40.6 26 78.1 44.2 115.3 15.7 32.2 31 64.6 40.1 99.4 10.2 38.7 4.1 75.2-17.2 108.7-23 36.3-54.7 62.3-97.2 71.9-55.6 12.6-105.7 1.1-147.8-39.2-24.7-23.6-40.6-52.2-45.8-85.9-7.8-50 3.3-94.9 37.9-133 19.4-21.4 42.2-37.4 70-45.7 29.4-8.8 59-8.1 88.4.7 2.1.4 4 .7 6.4 1.2zm-49.7 263.4c61.4.9 114.5-53.3 111.8-119.4-2.4-58-51.4-114.2-122.8-108.5-49.7 4-102.6 50.3-100.9 116.8 1.8 61.2 50.4 111.6 111.9 111.1zM1683.2 485.8c12.9 4.5 16.7 14.2 16.7 26.4 0 30.7.1 61.3-.1 92 0 8.6-2.4 16.4-10.2 21.5-12.6 8.3-30.3 1.5-33.8-13.2-.8-3.4-1.2-6.9-1.2-10.4-.1-29.7 0-59.3-.1-89 0-8.3 1.1-16.3 8.4-22.8h-131v6c0 35.8.1 71.7 0 107.5 0 8.6-2.1 16.4-9.9 21.7-12.8 8.6-30.6 1.9-34.2-13-.8-3.4-1.2-6.9-1.2-10.4-.3-44.3-.4-88.6-.7-133-.1-14.3 9.8-24 24.8-24.1 47.3 0 94.7-.6 142 .2 25.2.4 54.8-23.6 48.4-56.5-3.1-15.8-12.9-26.7-27.1-33.8-7.3-3.6-14.9-5.2-23.1-5.2-46.3.1-92.7.1-139 0-8.2 0-15.9-1.8-21.2-8.9-5.5-7.4-6-15.5-2.2-23.6 3.9-8.2 11-12.4 20.1-12.4 16.2-.1 32.3 0 48.5 0 32.3 0 64.7-.3 97 .1 55.1.6 95.5 43.9 92.6 97.1-2.4 40.8-24.8 68.6-63.5 83.8zM1324 351.4V605c0 12.3-6 20.6-16.5 23.1-15.3 3.7-28.2-6.2-28.5-22-.2-8.2 0-16.3 0-24.5V358.1v-6.5c-2.1.4-3.9.5-5.6 1-43.2 12.4-72 39.8-84.9 83-2.6 8.8-2.4 18.4-4.1 27.5-1 5.6-2.2 11.6-5 16.4-5.1 8.7-16.1 11.2-26.6 7.4-8.4-3.1-13.9-12.8-13.6-22.3.8-21 4.3-41.5 12.7-60.8 23-52.4 62.5-85.6 118.9-96.8 49.6-9.8 94.4 3 133.3 34.4 39.2 31.6 58.7 73.6 59.8 124 .2 9.2-3.6 16.7-12.2 20.7-8.7 4.1-17.2 3.3-24.8-2.7-6.5-5.1-8.2-12.6-8.3-20.1-.3-48.6-35-96.7-88.7-110.8-1.7-.4-3.5-.6-5.9-1.1zM1038.1 629.1c-17 0-34 .5-51-.1-72-2.6-133.2-52.8-150.7-123-20.8-83.8 27.9-170.2 109.6-194.4 16.7-4.9 33.7-7.6 51.2-7.5 31.7.2 63.3 0 95 .1 7.7 0 14.9 2.1 19.9 8.6 5.8 7.6 6.5 16 2.5 24.5-4.4 9.1-12.6 12.6-22.2 12.5-32.3 0-64.6-.5-96.9-.6-55.1-.1-102.9 36.2-115.6 89.7-10.7 45 1.8 84.2 36.1 115.5 22.4 20.5 49.3 30.2 79.9 29.9 32.2-.3 64.3-.1 96.5-.1 12.4 0 21.2 6.3 23.7 16.6 3.7 15.5-5.9 28.1-22 28.3-18.7.2-37.3.1-56 0zM2042.2 629.1c-17 0-34 .5-51-.1-72-2.6-133.2-52.8-150.7-123-20.9-83.8 27.8-170.2 109.6-194.4 16.7-4.9 33.7-7.6 51.2-7.5 31.7.2 63.3 0 95 .1 11.7 0 21.1 6.2 23.7 15.5 4.5 16.7-6 30.1-23.9 30.1-32-.1-64-.3-95.9-.7-53.8-.6-101.4 34.7-115.2 86.3-12.4 46.3 0 86.8 35.5 119.2 22.1 20.2 48.8 29.9 79 29.6 32.3-.3 64.6-.1 97-.1 12 0 21.3 6.4 23.7 16.1 4 16-5.8 28.8-22.3 28.9-18.7.2-37.2.1-55.7 0 0 .1 0 0 0 0zM1813.8 537.5c0 22.3.1 44.6-.1 66.9-.1 8.7-2.4 16.5-10.5 21.3-13.1 7.9-30.7 1-33.5-13-.6-2.9-1.2-5.9-1.2-8.9-.1-44.3-.1-88.6 0-132.9 0-7.9 1.7-15.3 8.3-20.6 7.4-5.9 15.8-7 24.3-3 9.4 4.4 12.6 12.9 12.7 22.6.2 22.6 0 45.1 0 67.6zM1813.8 366.7c0 12.7.1 25.3 0 38-.1 8.5-2.4 16.1-10 21.2-12.9 8.7-30.4 2.1-34.1-13-.7-2.9-1.1-5.9-1.1-8.9-.1-24.6-.1-49.3 0-74 0-7.5 1.4-14.7 7.4-20 7.3-6.5 15.7-7.8 24.6-4.1 9.7 4.1 13 12.5 13.2 22.2.3 12.9 0 25.7 0 38.6z"/><path d="M239.3 665.6c-61.6.6-110.2-49.9-111.8-111.1-1.8-66.5 51.1-112.8 100.9-116.8 71.3-5.8 120.4 50.5 122.8 108.5 2.7 66.1-50.5 120.2-111.9 119.4z" fill="none"/></g></svg>